<svg width="96" height="76" xmlns="http://www.w3.org/2000/svg"><path d="M38.884 66.635a29.19 29.19 0 0 1-5.237 3.303 40.54 40.54 0 0 1-5.989 2.39 42.922 42.922 0 0 1-6.31 1.45 41.47 41.47 0 0 1-6.204.484c-.788 0-1.567-.072-2.337-.215-.77-.143-1.45-.394-2.04-.752a4.32 4.32 0 0 1-1.451-1.45c-.376-.609-.564-1.379-.564-2.31 0-.358.054-.743.161-1.155a5.01 5.01 0 0 1 .457-1.154c.197-.358.456-.654.778-.887a1.884 1.884 0 0 1 1.128-.349c.323 0 .555.036.699.108 1.61.465 3.258.77 4.941.913 1.683.143 3.366.25 5.049.322a106.685 106.685 0 0 1-1.826-15.146c-.251-5.12-.376-10.17-.376-15.147 0-2.865.036-5.702.107-8.513.072-2.811.215-5.613.43-8.406a58.51 58.51 0 0 1-2.47 2.31c-.968.859-1.988 1.7-3.062 2.524a32.477 32.477 0 0 1-3.25 2.202c-1.092.645-2.086 1.092-2.98 1.343L8 27.694c1.182-1.074 2.354-2.444 3.518-4.109a64.007 64.007 0 0 0 3.33-5.317 94.122 94.122 0 0 0 2.927-5.64c.896-1.88 1.665-3.571 2.31-5.075.358-.752.68-1.62.967-2.605.286-.985.626-1.835 1.02-2.552.215-.5.466-.841.752-1.02.287-.18.734-.269 1.343-.269.43 0 .976.108 1.638.323a9.58 9.58 0 0 1 1.907.86 6.756 6.756 0 0 1 1.558 1.234c.43.466.644.967.644 1.504v.376a160.297 160.297 0 0 0-3.357 14.932 178.112 178.112 0 0 0-1.987 15.2 246.232 246.232 0 0 0-.86 15.603c-.125 5.282-.116 10.68.027 16.194h1.075c1.074 0 2.202-.027 3.383-.08a59.008 59.008 0 0 0 3.545-.27 54.604 54.604 0 0 0 3.491-.483 30.621 30.621 0 0 0 3.223-.725l.43.86zm49.145-28.252c0 2.327-.197 4.843-.59 7.546a52.95 52.95 0 0 1-1.854 8.11 47.223 47.223 0 0 1-3.222 7.815c-1.307 2.507-2.865 4.727-4.673 6.66a21.763 21.763 0 0 1-6.204 4.647c-2.327 1.163-4.941 1.745-7.841 1.745-2.83 0-5.345-.528-7.547-1.584a19.184 19.184 0 0 1-5.8-4.27c-1.666-1.79-3.062-3.85-4.19-6.177a44.182 44.182 0 0 1-2.766-7.305 52.148 52.148 0 0 1-1.558-7.68c-.322-2.578-.483-5.013-.483-7.305 0-2.435.116-4.941.349-7.52a62.196 62.196 0 0 1 1.182-7.68 54.094 54.094 0 0 1 2.202-7.466 36.475 36.475 0 0 1 3.41-6.848 29.751 29.751 0 0 1 4.807-5.774C55.096 3.578 57.235 2.146 59.67 1l.322.645c-2.435 2.112-4.422 4.681-5.962 7.707a48.635 48.635 0 0 0-3.652 9.587 64.191 64.191 0 0 0-1.853 10.26c-.34 3.473-.51 6.713-.51 9.72 0 1.899.116 4.03.349 6.393a58.879 58.879 0 0 0 1.181 7.224 46.557 46.557 0 0 0 2.256 7.197c.95 2.345 2.14 4.431 3.572 6.257 1.432 1.826 3.124 3.294 5.076 4.405 1.951 1.11 4.216 1.665 6.794 1.665 2.005 0 3.76-.529 5.264-1.585 1.504-1.056 2.793-2.435 3.867-4.136 1.074-1.7 1.96-3.616 2.659-5.747a51.246 51.246 0 0 0 1.665-6.472c.412-2.184.698-4.288.86-6.31.16-2.024.24-3.77.24-5.238 0-1.575-.116-3.509-.348-5.8a74.696 74.696 0 0 0-1.128-7.278 69.908 69.908 0 0 0-2.014-7.654c-.824-2.542-1.836-4.825-3.035-6.848-1.2-2.023-2.605-3.67-4.216-4.942-1.612-1.27-3.456-1.906-5.533-1.906-1.61 0-2.99.42-4.135 1.262a9.632 9.632 0 0 0-2.766 3.169 13.516 13.516 0 0 0-1.45 4.162c-.27 1.504-.314 2.919-.135 4.243l-.537.108a37.5 37.5 0 0 1-.269-1.907 16.78 16.78 0 0 1-.107-1.907c0-1.79.233-3.518.698-5.183.466-1.665 1.164-3.142 2.095-4.43a10.435 10.435 0 0 1 3.518-3.09c1.414-.77 3.088-1.154 5.022-1.154 2.686 0 5.067.618 7.144 1.853a20.264 20.264 0 0 1 5.451 4.753 28.478 28.478 0 0 1 3.894 6.446c1.039 2.363 1.826 4.673 2.364 6.928a56.33 56.33 0 0 1 1.315 7.44c.269 2.488.403 5.003.403 7.546z" fill="#FFF" fill-rule="evenodd" fill-opacity=".9"/></svg>