<svg width="96" height="76" xmlns="http://www.w3.org/2000/svg"><path d="M46.46 58.656a21.229 21.229 0 0 1-3.808 2.403 29.483 29.483 0 0 1-4.355 1.738c-1.51.469-3.04.82-4.59 1.055a30.16 30.16 0 0 1-4.512.351 9.27 9.27 0 0 1-1.699-.156 4.384 4.384 0 0 1-1.484-.547 3.142 3.142 0 0 1-1.055-1.055c-.273-.442-.41-1.002-.41-1.68 0-.26.039-.54.117-.84.078-.299.189-.579.332-.84.143-.26.332-.474.567-.644.234-.169.507-.254.82-.254.234 0 .403.027.508.079a18.6 18.6 0 0 0 3.593.664 86.97 86.97 0 0 0 3.672.234 77.59 77.59 0 0 1-1.328-11.016 225.307 225.307 0 0 1-.273-11.015c0-2.084.026-4.147.078-6.192.052-2.044.156-4.082.312-6.113a42.553 42.553 0 0 1-1.797 1.68 39.783 39.783 0 0 1-2.226 1.836 23.62 23.62 0 0 1-2.363 1.601c-.795.47-1.517.795-2.168.977L24 30.336c.86-.781 1.712-1.777 2.559-2.988a46.55 46.55 0 0 0 2.421-3.868 68.452 68.452 0 0 0 2.13-4.101c.65-1.367 1.21-2.598 1.68-3.692.26-.546.494-1.178.702-1.894a9.173 9.173 0 0 1 .742-1.855c.157-.365.339-.612.547-.743.209-.13.534-.195.977-.195.312 0 .71.078 1.191.234.482.157.944.365 1.387.625.443.26.82.56 1.133.899.312.338.468.703.468 1.094v.273a116.58 116.58 0 0 0-2.44 10.86c-.639 3.645-1.12 7.33-1.446 11.054a179.078 179.078 0 0 0-.625 11.348c-.091 3.84-.085 7.767.02 11.777h.78c.782 0 1.602-.02 2.462-.059a43.041 43.041 0 0 0 2.578-.195 39.874 39.874 0 0 0 2.539-.351 22.27 22.27 0 0 0 2.343-.528l.313.625zm25.196 0a21.229 21.229 0 0 1-3.808 2.403 29.483 29.483 0 0 1-4.356 1.738c-1.51.469-3.04.82-4.59 1.055a30.16 30.16 0 0 1-4.511.351 9.27 9.27 0 0 1-1.7-.156 4.384 4.384 0 0 1-1.484-.547 3.142 3.142 0 0 1-1.055-1.055c-.273-.442-.41-1.002-.41-1.68 0-.26.04-.54.117-.84.079-.299.19-.579.332-.84.144-.26.332-.474.567-.644.234-.169.508-.254.82-.254.235 0 .404.027.508.079a18.6 18.6 0 0 0 3.594.664 86.97 86.97 0 0 0 3.672.234 77.59 77.59 0 0 1-1.329-11.016 225.307 225.307 0 0 1-.273-11.015c0-2.084.026-4.147.078-6.192.052-2.044.156-4.082.313-6.113a42.553 42.553 0 0 1-1.797 1.68 39.783 39.783 0 0 1-2.227 1.836 23.62 23.62 0 0 1-2.363 1.601c-.794.47-1.517.795-2.168.977l-.39-.586c.859-.781 1.712-1.777 2.558-2.988a46.55 46.55 0 0 0 2.422-3.868 68.452 68.452 0 0 0 2.129-4.101c.65-1.367 1.21-2.598 1.68-3.692.26-.546.494-1.178.703-1.894a9.173 9.173 0 0 1 .742-1.855c.156-.365.338-.612.547-.743.208-.13.533-.195.976-.195.313 0 .71.078 1.192.234a7.03 7.03 0 0 1 1.386.625c.443.26.82.56 1.133.899.313.338.469.703.469 1.094v.273a116.58 116.58 0 0 0-2.442 10.86c-.638 3.645-1.12 7.33-1.445 11.054a179.078 179.078 0 0 0-.625 11.348c-.091 3.84-.085 7.767.02 11.777h.78c.782 0 1.602-.02 2.462-.059.86-.039 1.719-.104 2.578-.195.86-.091 1.706-.208 2.539-.351a22.27 22.27 0 0 0 2.344-.528l.312.625z" fill="#FFF" fill-rule="evenodd" fill-opacity=".9"/></svg>