<svg width="96" height="76" xmlns="http://www.w3.org/2000/svg"><path d="M17.906 18.71l-2.539.743c-1.615.469-2.825.912-3.633 1.328-1.432.782-2.487 1.16-3.164 1.133-1.12-.026-1.64-.508-1.562-1.445.052-.964.924-1.64 2.617-2.032.963-.26 1.927-.533 2.89-.82L37.867 10v56.055h-20l.04-47.344zm70.86 45.392c0 1.302-1.316 1.953-3.946 1.953H46.851c.651-5.209 4.714-13.086 12.188-23.633 8.62-11.771 13.249-18.19 13.887-19.258.638-1.068 1.06-1.849 1.27-2.344a5.582 5.582 0 0 0 .546-2.383c0-.807-.176-1.569-.527-2.285-.352-.716-.88-1.321-1.582-1.816-1.537-1.094-3.724-1.64-6.563-1.64-2.682 0-5 .416-6.953 1.25-3.307 1.432-5.43 2.929-6.367 4.492-.703 1.093-1.51 1.64-2.422 1.64-.912 0-1.367-.56-1.367-1.68 0-1.38 1.25-2.89 3.75-4.53 3.958-2.527 8.659-3.79 14.101-3.79 6.641 0 11.966 1.42 15.977 4.258 3.828 2.708 5.742 6.172 5.742 10.39 0 2.422-.332 4.434-.996 6.036-.664 1.601-1.309 2.975-1.934 4.12a71.863 71.863 0 0 1-2.265 3.829l-7.5 11.21c-3.594 5.287-6.107 9.727-7.54 13.321h11.446c1.458 0 2.813-.117 4.063-.351 1.536-.287 2.597-.43 3.183-.43.586 0 1.029.176 1.328.527.3.352.45.723.45 1.114z" fill="#FFF" fill-rule="evenodd"/></svg>