<svg width="96" height="76" xmlns="http://www.w3.org/2000/svg"><path d="M16.906 18.71l-2.539.743c-1.615.469-2.825.912-3.633 1.328-1.432.782-2.487 1.16-3.164 1.133-1.12-.026-1.64-.508-1.562-1.445.052-.964.924-1.64 2.617-2.032.963-.26 1.927-.533 2.89-.82L36.867 10v56.055h-20l.04-47.344zm49.531 15.157c.625 0 1.224-.026 1.797-.078V13.008l-.86-.078a9.074 9.074 0 0 0-.82-.04h-1.66c-.846 0-1.894.085-3.144.255-1.25.169-2.383.41-3.399.722-2.03.573-3.463 1.341-4.296 2.305-.782.911-1.524 1.393-2.227 1.445-1.406.104-2.135-.351-2.188-1.367-.104-1.563 2.084-3.112 6.563-4.648 3.151-1.016 6.647-1.524 10.488-1.524 3.841 0 7.058.339 9.649 1.016 2.59.677 4.733 1.601 6.425 2.773 3.36 2.292 5.04 5.417 5.04 9.375 0 3.88-1.967 7.136-5.899 9.766-1.354.911-2.943 1.666-4.766 2.265 5.99 1.928 9.922 5.248 11.797 9.961.6 1.563.899 3.399.899 5.508 0 2.11-.54 4.18-1.621 6.211-1.081 2.031-2.637 3.776-4.668 5.234-4.271 3.073-10.091 4.61-17.461 4.61-6.328 0-11.797-1.758-16.406-5.274-1.615-1.224-2.696-2.552-3.243-3.984-.156-.417-.221-.781-.195-1.094.078-1.093.573-1.601 1.484-1.523.938.13 1.667.71 2.188 1.738a9.48 9.48 0 0 0 2.148 2.774c.912.82 2.006 1.569 3.282 2.246 2.838 1.484 5.937 2.226 9.296 2.226h3.594V36.914a23.491 23.491 0 0 0-2.578-.156h-1.484l-4.063.234c-1.797 0-2.695-.508-2.695-1.523 0-1.25.86-1.875 2.578-1.875l6.445.273zm6.446-19.922l-1.797-.468c.65.13 1.25.286 1.797.468z" fill="#FFF" fill-rule="evenodd"/></svg>