<svg width="96" height="76" xmlns="http://www.w3.org/2000/svg"><path d="M43.46 58.656a21.229 21.229 0 0 1-3.808 2.403 29.483 29.483 0 0 1-4.355 1.738c-1.51.469-3.04.82-4.59 1.055a30.16 30.16 0 0 1-4.512.351 9.27 9.27 0 0 1-1.699-.156 4.384 4.384 0 0 1-1.484-.547 3.142 3.142 0 0 1-1.055-1.055c-.273-.442-.41-1.002-.41-1.68 0-.26.039-.54.117-.84.078-.299.189-.579.332-.84.143-.26.332-.474.567-.644.234-.169.507-.254.82-.254.234 0 .403.027.508.079a18.6 18.6 0 0 0 3.593.664c1.224.104 2.448.182 3.672.234a77.59 77.59 0 0 1-1.328-11.016 225.307 225.307 0 0 1-.273-11.015c0-2.084.026-4.147.078-6.192.052-2.044.156-4.082.312-6.113a42.553 42.553 0 0 1-1.797 1.68 39.783 39.783 0 0 1-2.226 1.836 23.62 23.62 0 0 1-2.363 1.601c-.795.47-1.517.795-2.168.977L21 30.336c.86-.781 1.712-1.777 2.559-2.988a46.55 46.55 0 0 0 2.421-3.868 68.452 68.452 0 0 0 2.13-4.101c.65-1.367 1.21-2.598 1.68-3.692.26-.546.494-1.178.702-1.894a9.173 9.173 0 0 1 .742-1.855c.157-.365.339-.612.547-.743.209-.13.534-.195.977-.195.312 0 .71.078 1.191.234.482.157.944.365 1.387.625.443.26.82.56 1.133.899.312.338.468.703.468 1.094v.273a116.58 116.58 0 0 0-2.44 10.86c-.639 3.645-1.12 7.33-1.446 11.054a179.078 179.078 0 0 0-.625 11.348c-.091 3.84-.085 7.767.02 11.777h.78c.782 0 1.602-.02 2.462-.059.859-.039 1.718-.104 2.578-.195.859-.091 1.705-.208 2.539-.351a22.27 22.27 0 0 0 2.343-.528l.313.625zM75.22 47.875a15.2 15.2 0 0 1-1.406 6.445 18.035 18.035 0 0 1-3.75 5.352 17.87 17.87 0 0 1-5.43 3.652 15.937 15.937 0 0 1-6.445 1.348 15.72 15.72 0 0 1-5.079-.82c-1.614-.547-3.033-1.335-4.257-2.364-1.224-1.028-2.201-2.291-2.93-3.789-.73-1.497-1.094-3.196-1.094-5.097 0-1.954.423-3.848 1.27-5.684.846-1.836 1.972-3.418 3.379-4.746l.468.508a14.02 14.02 0 0 0-1.133 3.242 15.99 15.99 0 0 0-.39 3.476c0 1.51.306 3.067.918 4.668a15.348 15.348 0 0 0 2.539 4.356 14.37 14.37 0 0 0 3.77 3.223 8.908 8.908 0 0 0 4.609 1.27c1.797 0 3.294-.45 4.492-1.349a9.964 9.964 0 0 0 2.871-3.398 16.224 16.224 0 0 0 1.543-4.473c.313-1.614.469-3.125.469-4.53 0-1.954-.274-3.875-.82-5.763-.547-1.888-1.361-3.574-2.442-5.058a12.605 12.605 0 0 0-4.043-3.594c-1.614-.911-3.502-1.367-5.664-1.367-1.25 0-2.48.163-3.691.488-1.211.326-2.377.723-3.496 1.191l-1.211-.234 3.047-18.164a3.634 3.634 0 0 1-.47-1.836c0-.26.033-.54.098-.84.066-.3.176-.58.332-.84.157-.26.352-.475.586-.644.235-.17.508-.254.82-.254.209 0 .365.026.47.078 1.484.417 3.033.67 4.648.762 1.614.091 3.19.137 4.726.137a57.583 57.583 0 0 0 5-.234c.86-.079 1.706-.19 2.54-.333a18.747 18.747 0 0 0 2.382-.566l.313.664a23.468 23.468 0 0 1-3.848 2.422 26.882 26.882 0 0 1-4.355 1.738c-1.51.456-3.04.8-4.59 1.035-1.55.235-3.054.339-4.512.313h-.547l-4.062 13.75c1.354-.547 2.76-.99 4.218-1.328a19.458 19.458 0 0 1 4.415-.508c2.395 0 4.563.494 6.503 1.484 1.94.99 3.594 2.311 4.961 3.965 1.368 1.654 2.422 3.542 3.164 5.664a19.798 19.798 0 0 1 1.114 6.582z" fill="#FFF" fill-rule="evenodd"/></svg>