<svg width="96" height="76" xmlns="http://www.w3.org/2000/svg"><path d="M13.906 18.71l-2.539.743c-1.615.469-2.825.912-3.633 1.328-1.432.782-2.487 1.16-3.164 1.133-1.12-.026-1.64-.508-1.562-1.445.052-.964.924-1.64 2.617-2.032.963-.26 1.927-.533 2.89-.82L33.867 10v56.055h-20l.04-47.344zm70.313-1.718c-2.266-2.864-5.95-4.297-11.055-4.297-2.188 0-4.076.183-5.664.547v50.664c.729.104 1.497.157 2.305.157 6.067 0 10.885-1.732 14.453-5.196 3.333-3.229 5-7.278 5-12.148 0-4.271-1.146-7.643-3.438-10.117-2.265-2.474-5.312-3.711-9.14-3.711-1.355 0-2.318.117-2.891.351-1.615.6-2.787.755-3.516.469-.338-.13-.553-.456-.644-.977-.091-.52.006-.93.293-1.23.286-.3.69-.527 1.21-.684 1.277-.442 3.074-.664 5.391-.664 2.318 0 4.414.326 6.29.977a13.05 13.05 0 0 1 4.921 3.047c3.047 2.994 4.57 7.304 4.57 12.93 0 6.015-2.252 10.872-6.757 14.57-4.193 3.411-9.31 5.117-15.352 5.117-6.797 0-12.292-2.149-16.484-6.445-4.688-4.792-7.031-11.68-7.031-20.664 0-9.167 2.552-16.472 7.656-21.915 4.818-5.13 10.937-7.695 18.36-7.695 4.452 0 8.332.938 11.64 2.813 2.448 1.432 3.672 2.89 3.672 4.375 0 .833-.495 1.25-1.485 1.25-.573 0-1.028-.17-1.367-.508l-.937-1.016z" fill="#FFF" fill-rule="evenodd" fill-opacity=".9"/></svg>