<svg width="96" height="76" xmlns="http://www.w3.org/2000/svg"><path d="M25.424 71.976c-4.09 0-6.136-4.299-6.136-12.896 0-4.368.71-9.793 2.132-16.276 1.421-6.483 3.588-13.121 6.5-19.916-5.893 3.328-10.59 6.899-14.092 10.712-3.501 3.813-5.252 8.459-5.252 13.936 0 1.248.243 2.045.728 2.392s.797.52.936.52c-.139.832-.728 1.248-1.768 1.248s-2.045-.52-3.016-1.56C4.486 49.096 4 47.346 4 44.884c0-2.461.728-5.044 2.184-7.748 1.456-2.704 3.605-5.165 6.448-7.384 4.645-3.675 10.261-7.107 16.848-10.296C33.987 9.819 38.32 5 42.48 5c2.15 0 3.224 1.11 3.224 3.328 0 1.941-.953 3.727-2.86 5.356-1.907 1.63-4.836 3.553-8.788 5.772-3.467 9.43-5.928 20.072-7.384 31.928-.485 4.299-.728 7.835-.728 10.608 0 4.992.832 7.627 2.496 7.904-.693 1.387-1.699 2.08-3.016 2.08zM42.48 7.496c-2.288 0-4.68 2.981-7.176 8.944 5.616-2.981 8.424-5.512 8.424-7.592 0-.901-.416-1.352-1.248-1.352zm14.144 3.328c0 1.525.728 2.739 2.184 3.64 1.456.901 3.328 1.352 5.616 1.352 4.021 0 9.187-1.387 15.496-4.16 6.31-2.773 10.192-4.16 11.648-4.16.416 0 .624.416.624 1.248 0 .832-.208 1.248-.624 1.248-4.23 0-9.135 4.992-14.716 14.976-5.581 9.984-9.828 19.968-12.74 29.952-1.733 5.824-2.6 9.776-2.6 11.856s.416 3.12 1.248 3.12c-.693 1.387-1.699 2.08-3.016 2.08-3.259 0-4.888-2.15-4.888-6.448 0-1.803.277-3.987.832-6.552 2.08-8.944 6.517-18.893 13.312-29.848 3.744-6.101 7.488-11.059 11.232-14.872-8.32 3.883-14.976 5.824-19.968 5.824-4.992 0-8.043-1.733-9.152-5.2-.277-.901-.416-1.993-.416-3.276 0-1.283.607-2.67 1.82-4.16 1.213-1.49 2.79-2.236 4.732-2.236.555 0 1.04.139 1.456.416.416.277.728.659.936 1.144-1.317 0-2.253.832-2.808 2.496a6.449 6.449 0 0 0-.208 1.56z" fill="#FFF" fill-rule="evenodd"/></svg>