<svg width="96" height="76" xmlns="http://www.w3.org/2000/svg"><path d="M28.776 68.824c-3.776 0-5.664-3.968-5.664-11.904 0-4.032.656-9.04 1.968-15.024 1.312-5.984 3.312-12.112 6-18.384-5.44 3.072-9.776 6.368-13.008 9.888-3.232 3.52-4.848 7.808-4.848 12.864 0 1.152.224 1.888.672 2.208.448.32.736.48.864.48-.128.768-.672 1.152-1.632 1.152-.96 0-1.888-.48-2.784-1.44C9.448 47.704 9 46.088 9 43.816s.672-4.656 2.016-7.152c1.344-2.496 3.328-4.768 5.952-6.816 4.288-3.392 9.472-6.56 15.552-9.504C36.68 11.448 40.68 7 44.52 7c1.984 0 2.976 1.024 2.976 3.072 0 1.792-.88 3.44-2.64 4.944-1.76 1.504-4.464 3.28-8.112 5.328-3.2 8.704-5.472 18.528-6.816 29.472-.448 3.968-.672 7.232-.672 9.792 0 4.608.768 7.04 2.304 7.296-.64 1.28-1.568 1.92-2.784 1.92zM44.52 9.304c-2.112 0-4.32 2.752-6.624 8.256 5.184-2.752 7.776-5.088 7.776-7.008 0-.832-.384-1.248-1.152-1.248zm11.616 57.888c6.592 0 12.288-4.256 17.088-12.768 4.8-8.512 7.2-17.824 7.2-27.936 0-6.848-1.504-11.424-4.512-13.728-1.152-.896-2.496-1.344-4.032-1.344-4.736 0-8.736 3.008-12 9.024-2.624 4.8-3.936 9.696-3.936 14.688 0 6.336 1.888 9.824 5.664 10.464.32.064.672.096 1.056.096 3.328 0 6.176-1.888 8.544-5.664 2.368-3.776 3.616-7.776 3.744-12 0-.896.336-1.216 1.008-.96.672.256.976.8.912 1.632-.192 4.8-1.728 9.216-4.608 13.248s-6.624 6.048-11.232 6.048c-5.312 0-8.768-2.592-10.368-7.776-.512-1.856-.768-4.144-.768-6.864 0-2.72.8-6 2.4-9.84 2.752-6.336 6.816-10.624 12.192-12.864a17.73 17.73 0 0 1 6.816-1.344c7.168 0 11.968 3.424 14.4 10.272 1.024 2.88 1.536 6.224 1.536 10.032s-.832 8.208-2.496 13.2C81.736 51.96 77 59.032 70.536 64.024c-4.928 3.776-10.24 5.664-15.936 5.664-3.2 0-5.648-.8-7.344-2.4-1.696-1.6-2.544-3.264-2.544-4.992 0-1.728.672-2.688 2.016-2.88 1.152.064 1.824.544 2.016 1.44 0 1.728.592 3.216 1.776 4.464 1.184 1.248 3.056 1.872 5.616 1.872z" fill="#FFF" fill-rule="evenodd" fill-opacity=".9"/></svg>