<svg width="96" height="76" xmlns="http://www.w3.org/2000/svg"><path d="M66.248 46.912c2.496 0 3.744 2.01 3.744 6.032 0 4.021-1.179 7.696-3.536 11.024-3.12 4.507-7.384 6.76-12.792 6.76-2.496 0-4.715-.52-6.656-1.56-1.941-1.04-3.432-2.184-4.472-3.432-2.704-3.259-4.975-4.888-6.812-4.888-1.837 0-3.241.676-4.212 2.028-.97 1.352-1.456 2.548-1.456 3.588 0 .832-.676 1.265-2.028 1.3-1.352.035-2.028-.399-2.028-1.3 0-2.288 3.293-6.067 9.88-11.336 6.656-5.339 12.757-11.024 18.304-17.056a41.276 41.276 0 0 0 7.072-10.088c1.872-3.744 2.808-7.384 2.808-10.92 0-6.31-3.016-9.464-9.048-9.464-5.2 0-9.221 2.808-12.064 8.424-1.595 3.328-2.392 6.552-2.392 9.672 0 1.248.139 2.496.416 3.744.763 3.605 2.496 5.408 5.2 5.408 0 .97-.763 1.456-2.288 1.456-4.299 0-7.072-2.115-8.32-6.344a14.413 14.413 0 0 1-.624-4.16c0-3.12.936-6.379 2.808-9.776C41.842 8.674 48.117 5 56.576 5c4.715 0 8.285 1.127 10.712 3.38 2.427 2.253 3.64 5.148 3.64 8.684 0 3.536-.78 6.881-2.34 10.036-1.56 3.155-3.796 6.223-6.708 9.204-2.912 2.981-5.685 5.599-8.32 7.852-2.635 2.253-5.79 4.784-9.464 7.592-3.675 2.808-6.275 4.905-7.8 6.292.485-.07.901-.104 1.248-.104 1.664 0 4.177.901 7.54 2.704 3.363 1.803 6.57 2.704 9.62 2.704 5.13 0 8.84-2.115 11.128-6.344.97-1.803 1.456-3.293 1.456-4.472 0-2.843-.867-4.264-2.6-4.264.139-.901.659-1.352 1.56-1.352z" fill="#FFF" fill-rule="evenodd"/></svg>