<svg width="96" height="76" xmlns="http://www.w3.org/2000/svg"><path d="M43.242 64.516a32.64 32.64 0 0 0-6.426-1.075 98.342 98.342 0 0 0-11.718-.078 29.94 29.94 0 0 0-5.215.723h-.547c-.73 0-1.302-.267-1.719-.8a2.874 2.874 0 0 1-.625-1.817c0-.703.176-1.27.528-1.7.351-.43.787-.761 1.308-.996.521-.234 1.1-.39 1.738-.468.638-.078 1.23-.117 1.778-.117h.39a31.534 31.534 0 0 0 6.23-4.57 31.634 31.634 0 0 0 4.981-5.977 29.62 29.62 0 0 0 3.301-6.993c.794-2.474 1.191-5 1.191-7.578 0-1.172-.104-2.422-.312-3.75a26.93 26.93 0 0 0-.938-3.965 21.428 21.428 0 0 0-1.601-3.77 14.078 14.078 0 0 0-2.344-3.183 10.902 10.902 0 0 0-3.086-2.207c-1.146-.547-2.435-.82-3.867-.82a8.586 8.586 0 0 0-3.144.586 8.424 8.424 0 0 0-2.657 1.64 8.043 8.043 0 0 0-1.836 2.481 7 7 0 0 0-.683 3.066 8.78 8.78 0 0 0 1.113 4.355c.352.639.755 1.25 1.211 1.837.456.586.957 1.165 1.504 1.738.312.365.566.71.762 1.035.195.326.293.749.293 1.27 0 .39-.066.794-.196 1.21a4.43 4.43 0 0 1-.547 1.153 3.138 3.138 0 0 1-.879.879 2.1 2.1 0 0 1-1.19.352c-1.017 0-1.85-.365-2.5-1.094-.652-.73-1.166-1.608-1.544-2.637a14.751 14.751 0 0 1-.781-3.223c-.143-1.12-.215-2.057-.215-2.812 0-1.537.17-3.02.508-4.453.338-1.432.86-2.78 1.562-4.043a14.918 14.918 0 0 1 2.637-3.438 14.579 14.579 0 0 1 3.691-2.597 12.092 12.092 0 0 1 2.676-.957c.95-.222 1.92-.332 2.91-.332 1.355 0 2.637.201 3.848.605 1.211.404 2.337.964 3.379 1.68a13.42 13.42 0 0 1 2.793 2.578 16.286 16.286 0 0 1 2.09 3.3 16.09 16.09 0 0 1 1.308 4.18 26.06 26.06 0 0 1 .371 4.375c0 3.021-.41 5.97-1.23 8.848a37.627 37.627 0 0 1-3.438 8.223 39.187 39.187 0 0 1-5.273 7.246 41.498 41.498 0 0 1-6.738 5.918 45.824 45.824 0 0 1 9.218 1.777c1.51.456 2.963.996 4.356 1.621a28.317 28.317 0 0 1 3.887 2.11l-.313.664zM80.86 38.187c0 1.693-.143 3.523-.43 5.489a38.509 38.509 0 0 1-1.347 5.898 34.344 34.344 0 0 1-2.344 5.684c-.95 1.823-2.083 3.437-3.398 4.844a15.828 15.828 0 0 1-4.512 3.378c-1.693.847-3.594 1.27-5.703 1.27-2.057 0-3.887-.384-5.488-1.152a13.952 13.952 0 0 1-4.219-3.106A18.2 18.2 0 0 1 50.371 56a32.132 32.132 0 0 1-2.012-5.313 37.926 37.926 0 0 1-1.132-5.585 42.927 42.927 0 0 1-.352-5.313c0-1.77.085-3.594.254-5.469.17-1.875.456-3.737.86-5.586a39.34 39.34 0 0 1 1.6-5.43 26.527 26.527 0 0 1 2.481-4.98 21.64 21.64 0 0 1 3.496-4.199c1.342-1.25 2.898-2.292 4.668-3.125l.235.469c-1.771 1.536-3.216 3.405-4.336 5.605a35.37 35.37 0 0 0-2.656 6.973 46.684 46.684 0 0 0-1.348 7.46 72.808 72.808 0 0 0-.371 7.071c0 1.38.084 2.93.254 4.649a42.5 42.5 0 0 0 .86 5.253 33.86 33.86 0 0 0 1.64 5.235c.69 1.706 1.556 3.222 2.597 4.55a12.543 12.543 0 0 0 3.692 3.204c1.42.807 3.066 1.21 4.941 1.21 1.459 0 2.735-.383 3.828-1.152 1.094-.768 2.032-1.77 2.813-3.007.781-1.237 1.426-2.63 1.933-4.18a37.27 37.27 0 0 0 1.211-4.707c.3-1.589.508-3.119.625-4.59.118-1.471.176-2.74.176-3.809 0-1.145-.085-2.552-.254-4.218a54.325 54.325 0 0 0-.82-5.293 50.842 50.842 0 0 0-1.465-5.567c-.599-1.849-1.335-3.509-2.207-4.98-.872-1.472-1.894-2.67-3.066-3.594-1.172-.924-2.513-1.387-4.024-1.387-1.172 0-2.174.306-3.008.918a7.005 7.005 0 0 0-2.011 2.305 9.83 9.83 0 0 0-1.055 3.027c-.195 1.094-.228 2.123-.098 3.086l-.39.078a27.273 27.273 0 0 1-.196-1.386 12.203 12.203 0 0 1-.078-1.387c0-1.302.17-2.559.508-3.77.339-1.21.846-2.285 1.523-3.222a7.589 7.589 0 0 1 2.56-2.246c1.028-.56 2.245-.84 3.651-.84 1.954 0 3.685.449 5.196 1.347a14.761 14.761 0 0 1 3.965 3.457 20.711 20.711 0 0 1 2.832 4.688 29.58 29.58 0 0 1 1.718 5.04c.443 1.796.762 3.6.957 5.41.196 1.81.293 3.639.293 5.487z" fill="#FFF" fill-rule="evenodd"/></svg>