<svg width="96" height="76" xmlns="http://www.w3.org/2000/svg"><path d="M69.888 17.48c0 5.13-2.184 9.707-6.552 13.728a15.093 15.093 0 0 1 5.096 6.396c1.11 2.6 1.664 5.373 1.664 8.32s-.659 5.963-1.976 9.048-3.068 5.824-5.252 8.216c-2.184 2.392-5.044 4.35-8.58 5.876-3.536 1.525-7.419 2.288-11.648 2.288-7.28 0-12.203-2.392-14.768-7.176C26.624 61.888 26 59.548 26 57.156c0-2.392.728-4.801 2.184-7.228 2.773-4.784 6.968-7.176 12.584-7.176.832 0 1.508.225 2.028.676.52.45.85 1.092.988 1.924-.901-.277-1.907-.416-3.016-.416-3.813 0-6.69 1.976-8.632 5.928-1.04 2.08-1.56 4.108-1.56 6.084s.45 3.935 1.352 5.876c1.803 3.952 5.373 5.928 10.712 5.928 4.368 0 8.216-1.352 11.544-4.056 5.963-4.923 8.944-11.717 8.944-20.384 0-4.507-1.005-8.077-3.016-10.712-3.536 2.15-7.384 3.224-11.544 3.224s-6.24-1.144-6.24-3.432c0-1.664 1.005-3.016 3.016-4.056 2.01-1.04 4.299-1.56 6.864-1.56 2.565 0 4.888.416 6.968 1.248 2.912-3.675 4.368-7.557 4.368-11.648 0-2.288-.555-4.333-1.664-6.136-1.595-2.496-4.195-3.744-7.8-3.744-4.437 0-7.592 2.045-9.464 6.136-.763 1.664-1.144 3.137-1.144 4.42s.277 2.41.832 3.38c.624 1.04 1.421 1.595 2.392 1.664 0 .97-.763 1.456-2.288 1.456-2.704 0-4.437-1.421-5.2-4.264A14.558 14.558 0 0 1 39 17.896c0-2.496.936-4.923 2.808-7.28C44.858 6.872 49.209 5 54.86 5c5.65 0 9.724 1.525 12.22 4.576 1.872 2.357 2.808 4.992 2.808 7.904zM44.824 32.976c0 1.11 1.404 1.664 4.212 1.664s5.564-1.179 8.268-3.536c-1.595-.97-3.744-1.456-6.448-1.456s-4.576.797-5.616 2.392c-.277.347-.416.659-.416.936z" fill="#FFF" fill-rule="evenodd"/></svg>