<svg width="96" height="76" xmlns="http://www.w3.org/2000/svg"><path d="M31.297 46.063c.036.036.107.054.215.054a28.881 28.881 0 0 0 4.646-7.25c1.163-2.615 2.094-5.426 2.793-8.433.698-3.008 1.253-6.222 1.665-9.642.412-3.42.832-7.045 1.262-10.876a5.6 5.6 0 0 1 .564-1.934 5.351 5.351 0 0 1 1.155-1.557 4.015 4.015 0 0 1 1.611-.913c.609-.18 1.253-.161 1.934.053.68.18 1.181.51 1.504.994a4.59 4.59 0 0 1 .67 1.665 8.17 8.17 0 0 1 .135 2.014c-.036.716-.09 1.397-.161 2.041-.286 2.83-.824 5.756-1.611 8.782a63.723 63.723 0 0 1-3.116 9.05 63.367 63.367 0 0 1-4.619 8.782 49.544 49.544 0 0 1-6.123 7.869c1.576.358 3.259.689 5.05.993 1.79.305 3.598.573 5.424.806 1.826.233 3.661.42 5.505.564a94.34 94.34 0 0 0 5.29.269 213.503 213.503 0 0 1-.644-9.292 184.383 184.383 0 0 1-.215-8.648c0-1.146.01-2.551.027-4.216.018-1.665.09-3.456.215-5.371.125-1.916.331-3.867.618-5.855.286-1.987.68-3.867 1.181-5.64.502-1.772 1.137-3.356 1.907-4.753.77-1.396 1.71-2.453 2.82-3.169a9.868 9.868 0 0 1 1.934-1.02A5.747 5.747 0 0 1 65.08 1c.43 0 .806.116 1.128.35.322.232.483.599.483 1.1a4.31 4.31 0 0 1-.322 1.612 46.603 46.603 0 0 0-2.363 6.794 83.216 83.216 0 0 0-1.611 7.385c-.43 2.507-.77 4.968-1.021 7.385-.25 2.417-.448 4.655-.59 6.714a118.622 118.622 0 0 0-.27 5.425c-.035 1.558-.053 2.73-.053 3.518 0 1.003.009 1.889.027 2.659.018.77.027 1.468.027 2.095 0 .626.009 1.208.026 1.745a48.1 48.1 0 0 1 .027 1.612 42.062 42.062 0 0 0 2.122-.242 39.646 39.646 0 0 0 5.613-1.208l.537 1.074c-.43.214-.958.456-1.585.725-.626.268-1.307.546-2.04.832-.735.287-1.496.564-2.283.833a40.23 40.23 0 0 1-2.364.725c0 4.01.063 7.949.188 11.816.126 3.867.385 7.752.78 11.655l-.968.323c-1.325-3.259-2.39-6.804-3.195-10.635a128.316 128.316 0 0 1-1.907-11.87c-2.47.537-4.96.904-7.466 1.1a95.282 95.282 0 0 1-7.466.296h-2.283c-.913 0-1.87-.044-2.873-.134a28.956 28.956 0 0 1-3.008-.43c-1.003-.197-1.898-.492-2.685-.886-.788-.394-1.433-.904-1.934-1.53-.5-.628-.751-1.407-.751-2.338 0-.322.072-.725.215-1.209.143-.483.376-.93.698-1.342.322-.412.761-.716 1.316-.913.555-.197 1.244-.188 2.068.026z" fill="#FFF" fill-rule="evenodd"/></svg>