<svg width="96" height="76" xmlns="http://www.w3.org/2000/svg"><path d="M34.07 30.078c4.063-1.797 8.08-2.695 12.051-2.695s7.344.54 10.117 1.62c2.774 1.082 5.11 2.533 7.012 4.356 3.828 3.698 5.742 8.243 5.742 13.633 0 5.547-2.07 10.182-6.21 13.906-4.35 3.933-10.079 5.899-17.188 5.899-5 0-9.883-1.498-14.649-4.492-1.692-1.12-2.903-2.396-3.633-3.828-.208-.391-.312-.743-.312-1.055 0-1.276.469-1.914 1.406-1.914.912 0 1.686.534 2.324 1.601a11.41 11.41 0 0 0 2.364 2.813c.937.807 2.057 1.523 3.36 2.148 2.812 1.328 5.976 1.992 9.491 1.992h1.133a6.93 6.93 0 0 0 1.055-.078V30.352c-.86-.079-1.999-.118-3.418-.118-1.42 0-3.138.274-5.156.82-2.019.548-3.562 1.107-4.63 1.68-1.406.756-2.356 1.133-2.85 1.133-.496 0-.867-.17-1.114-.508-.248-.338-.345-.69-.293-1.054l2.07-17.813c.052-.208.078-.416.078-.625v-.664c0-1.354.104-2.135.313-2.344.312-.286.846-.43 1.601-.43l5.743.391h7.695c6.406 0 10.963-.26 13.672-.78a7.77 7.77 0 0 1 .898-.04c.39 0 .742.182 1.055.547.312.364.469.742.469 1.133 0 1.224-1.459 1.849-4.375 1.875a62.65 62.65 0 0 1-2.149.039H35.984L34.07 30.078z" fill="#FFF" fill-rule="evenodd" fill-opacity=".9"/></svg>