<?xml version="1.0" encoding="UTF-8"?>
<svg width="164px" height="90px" viewBox="0 0 164 90" version="1.1" xmlns="http://www.w3.org/2000/svg" xmlns:xlink="http://www.w3.org/1999/xlink">
    <!-- Generator: Sketch 52.3 (67297) - http://www.bohemiancoding.com/sketch -->
    <title>gift-body</title>
    <desc>Created with Sketch.</desc>
    <defs>
        <polygon id="path-1" points="17 -74 160 -74 160 90 17 90"></polygon>
    </defs>
    <g id="gift-body" stroke="none" stroke-width="1" fill="none" fill-rule="evenodd">
        <path d="M138.85199,8.97121771 L123.399682,3.28860886 C122.922759,3.09630996 122.350451,3 121.778462,3 L22.7692308,3 C20.0981436,3 18,5.11849815 18,7.81549815 L18,75.5535055 C18,83.5469114 24.3904513,90 32.3076923,90 L127.692308,90 C135.609549,90 142,83.5469114 142,75.5535055 L142,13.4974649 C142,11.4752768 140.759682,9.64538745 138.85199,8.97121771" id="Fill-1" fill="#D42E52"></path>
        <mask id="mask-2" fill="white">
            <use xlink:href="#path-1"></use>
        </mask>
        <g id="Clip-3"></g>
        <path d="M142,3.28860886 L142,75.5535055 C142,83.5469114 135.609549,90 127.692308,90 L80,90 L80,3 L121.778462,3 C122.16,3 127.184034,3 136.850565,3 C140.716336,3 142,4.75533485 142,9.28222415" id="Fill-2" fill="#B31244" mask="url(#mask-2)"></path>
        <polygon id="Fill-9" fill="#F0AA3D" mask="url(#mask-2)" points="66 90 95 90 95 3 66 3"></polygon>
        <polygon id="Fill-11" fill="#E9823D" mask="url(#mask-2)" points="80 90 94 90 94 3 80 3"></polygon>
    </g>
</svg>