<svg width="164" height="164" xmlns="http://www.w3.org/2000/svg" xmlns:xlink="http://www.w3.org/1999/xlink"><defs><path id="a" d="M11.02 0h142.672v164H11.019z"/></defs><g fill="none" fill-rule="evenodd"><path d="M133.269 83.153l-15.513-5.67c-.479-.192-1.053-.288-1.628-.288H16.731c-2.682 0-4.788 2.114-4.788 4.805v67.586c0 7.975 6.415 14.414 14.363 14.414h95.76c7.948 0 14.363-6.439 14.363-14.414V87.669c0-2.017-1.245-3.843-3.16-4.516" fill="#D42E52"/><mask id="b" fill="#fff"><use xlink:href="#a"/></mask><path d="M136.43 87.67v61.916c0 7.975-6.416 14.414-14.365 14.414h-47.88V77.195h41.943c.575 0 1.15.096 1.628.288l15.513 5.67c1.915.673 3.16 2.499 3.16 4.516" fill="#B31244" mask="url(#b)"/><path fill="#F0AA3D" mask="url(#b)" d="M59.822 164H88.55V77.195H59.822z"/><path fill="#E9823D" mask="url(#b)" d="M74.187 164h14.364V77.195H74.187z"/><g mask="url(#b)"><path d="M134.706 31.323c-1.628-6.63-6.512-11.82-13.12-13.934-6.511-2.018-13.502-.576-18.577 4.036l-11.108 9.802-2.202-14.702C88.645 9.798 84.336 4.129 77.92 1.438 76.676.958 75.43.573 74.186.381 68.92-.676 63.461.477 59.056 3.744c-5.841 4.229-8.81 11.34-7.852 18.45 1.053 7.111 5.841 13.165 12.64 15.567l10.342 3.748 12.736 4.709h.096l22.12 8.167c2.202.77 4.5 1.154 6.703 1.154 4.693 0 9.289-1.73 12.928-4.997a19.562 19.562 0 0 0 5.937-19.219" fill="#E9823D"/><path d="M128.768 50.542c-3.638 3.267-8.235 4.997-12.927 4.997-2.202 0-4.5-.385-6.703-1.154l-22.12-8.167h-.096l-12.736-4.709V.381c1.245.192 2.49.576 3.734 1.057 6.416 2.69 10.725 8.36 11.779 15.087L91.9 31.227l11.108-9.802c5.075-4.612 12.066-6.054 18.577-4.036 6.608 2.115 11.491 7.303 13.12 13.934a19.561 19.561 0 0 1-5.938 19.219" fill="#E5723B"/><path d="M152.804 74.985l-6.512 18.065a4.85 4.85 0 0 1-4.5 3.075c-.575 0-1.15-.096-1.628-.287L90.656 77.772l-4.5-14.895-11.97 2.69-10.533 2.403-49.508-18.066c-2.49-.96-3.734-3.747-2.873-6.15L17.88 25.69c1.245-3.651 3.926-6.535 7.373-8.168a14.13 14.13 0 0 1 11.012-.48l37.921 13.837 2.586.96s10.342 18.835 10.63 18.835c.191 0 4.308-2.306 8.33-4.516 4.021-2.21 8.043-4.516 8.043-4.516l40.41 14.798c3.64 1.345 6.512 4.036 8.14 7.495 1.628 3.46 1.82 7.4.479 11.05" fill="#D42E52"/><path d="M152.804 74.985l-6.512 18.065a4.85 4.85 0 0 1-4.5 3.075c-.575 0-1.15-.096-1.628-.287L90.656 77.772l-4.5-14.895-11.97 2.69V30.879l2.586.96S87.113 50.674 87.4 50.674c.192 0 4.31-2.306 8.331-4.516a588.06 588.06 0 0 0 8.043-4.516l40.41 14.798c3.64 1.345 6.512 4.036 8.14 7.495 1.628 3.46 1.82 7.4.479 11.05" fill="#C42456"/><path fill="#F0AA3D" d="M76.771 31.839l-2.585 7.11L63.652 67.97l10.534 3.844 11.97 4.325 4.5 1.633 13.12-36.131-27.005-9.802"/><path fill="#E9823D" d="M103.775 41.64L90.656 77.773l-4.5-1.634-11.97-4.324V38.95l2.585-7.111 27.004 9.802"/></g></g></svg>