<svg width="100" height="100" xmlns="http://www.w3.org/2000/svg"><defs><linearGradient x1="50%" y1="0%" x2="50%" y2="100%" id="a"><stop stop-color="#F6F6F6" offset="0%"/><stop stop-color="#E0E0E0" offset="100%"/></linearGradient></defs><g fill="none" fill-rule="evenodd"><path d="M54.2 57s16.71 16.012-2.259 37.62a1.087 1.087 0 0 1-1.643.009c-19.216-21.39-2.689-37.592-2.689-37.592l3.295-.018L54.2 57z" fill="url(#a)"/><path d="M54.2 57s16.71 16.012-2.259 37.62a1.087 1.087 0 0 1-1.643.009 55.782 55.782 0 0 1-3.26-3.965c9.949-11.97 11.237-23.186 3.866-33.645L54.2 57z" fill-opacity=".05" fill="#000"/><path d="M48 59l-2.816 21c-2.948-9.44.225-16.916 2.816-21z" fill-opacity=".4" fill="#FFF"/><path d="M46.813 50.31l-.018-3.14a1.13 1.13 0 0 1 1.122-1.134L54.042 46c.62-.003 1.13.502 1.134 1.122l.019 3.242h.078c.882.007 1.614.742 1.63 1.634L57 57.387A1.571 1.571 0 0 1 55.427 59l-8.7-.058c-.88-.005-1.615-.74-1.63-1.633L45 51.92a1.57 1.57 0 0 1 1.573-1.612l.24.002z" fill="#000"/></g></svg>