<svg width="100" height="100" xmlns="http://www.w3.org/2000/svg"><g fill="none" fill-rule="evenodd"><g transform="rotate(-90 61.5 30.5)"><path d="M2.435 11.011c-.263-.186-.547-.203-.76.038L.082 12.853c-.068.09-.18.32.089.646l8.922 10.613a12.11 12.11 0 0 1-.801-9.078l-5.857-4.023z" fill="#A61C78"/><path d="M7.765 18.316l-6.502-6.03c-.234-.22-.242-.413-.208-.535l-.973 1.102c-.068.09-.18.32.089.646l8.922 10.613a12.016 12.016 0 0 1-1.328-5.796z" fill="#8C1865"/><path d="M30.296 12.662c.416.74.757 1.527 1.013 2.352 3.044-1.016 6.126 1.166 6.126 4.27 0 2.488-2.027 4.504-4.527 4.504-.674 0-1.474-.148-2.05-.41a12.1 12.1 0 0 1-1.256 2.23c.948.467 2.176.731 3.306.731 3.917 0 7.092-3.158 7.092-7.055 0-4.95-4.99-8.35-9.704-6.622z" fill="#A61C78"/><path d="M15.582 29.984h8.442c8.15-2.988 10.46-13.088 5.052-19.37H10.53c-5.415 6.289-3.09 16.384 5.051 19.37z" fill="#ED42B4"/><path d="M17.477 10.615h-6.946c-5.415 6.288-3.09 16.384 5.051 19.37h8.442l.024-.01c-7.142-3.65-9.984-12.265-6.571-19.36z" fill="#C93E9B"/><path d="M10.338 8.292h18.93c-5.15-5.982-13.772-5.99-18.93 0z" fill="#ED42B4"/><path d="M21.529 3.924c-4.308-.643-8.45 1.183-11.191 4.368h5.876c1.326-2.244 3.197-3.907 5.315-4.368z" fill="#C93E9B"/><ellipse fill="#A61C78" cx="19.803" cy="1.906" rx="1.899" ry="1.889"/><path d="M20.753.271c-1.26-.725-2.849.18-2.849 1.636 0 1.457 1.59 2.36 2.849 1.635a1.884 1.884 0 0 1 0-3.27z" fill="#8C1865"/><path d="M29.534 10.695H10.072c-.62 0-1.236-.454-1.236-1.333 0-.68.553-1.23 1.236-1.23h19.462c.683 0 1.237.55 1.237 1.23 0 .883-.623 1.333-1.237 1.333z" fill="#A61C78"/><path d="M29.534 9.413H10.072c-.468 0-.875-.259-1.085-.64-.42.762.038 1.922 1.085 1.922h19.462c.604 0 1.237-.439 1.237-1.333a1.22 1.22 0 0 0-.151-.59c-.21.382-.617.641-1.086.641z" fill="#8C1865"/></g><path d="M46.313 46.81l-.018-3.14a1.13 1.13 0 0 1 1.122-1.134l6.125-.036c.62-.003 1.13.502 1.134 1.122l.019 3.242h.078c.882.007 1.613.742 1.63 1.634l.096 5.389a1.571 1.571 0 0 1-1.572 1.613l-8.7-.058c-.88-.005-1.614-.74-1.63-1.633l-.096-5.389a1.57 1.57 0 0 1 1.572-1.612l.24.002z" fill="#000"/></g></svg>