<?xml version="1.0" encoding="UTF-8"?>
<svg width="85px" height="85px" viewBox="0 0 85 85" version="1.1" xmlns="http://www.w3.org/2000/svg" xmlns:xlink="http://www.w3.org/1999/xlink">
    <!-- Generator: Sketch 52.3 (67297) - http://www.bohemiancoding.com/sketch -->
    <title>Artboard</title>
    <desc>Created with Sketch.</desc>
    <g id="Artboard" stroke="none" stroke-width="1" fill="none" fill-rule="evenodd">
        <g id="Group" transform="translate(32.000000, 36.000000)">
            <path d="M13.1994093,11 C13.1994093,11 29.9103627,27.0118976 10.9410486,48.6203687 C10.4994904,49.1230574 9.74505245,49.127269 9.29775492,48.6285372 C-9.91796821,27.2380705 6.60922233,11.0370993 6.60922233,11.0370993 L9.90414608,11.0192289 L13.1994093,11 Z" id="Mask" fill="#EAEAEA"></path>
            <path d="M13.1994093,11 C13.1994093,11 29.9103627,27.0118976 10.9410486,48.6203687 C10.4994904,49.1230574 9.74505245,49.127269 9.29775492,48.6285372 C8.09702928,47.2919192 7.01062334,45.9704459 6.03853712,44.6641174 C15.9868462,32.6931126 17.2753825,21.4781497 9.90414608,11.0192289 L13.1994093,11 Z" id="Mask-Copy" fill-opacity="0.05" fill="#000000"></path>
            <path d="M7,13 L4.1839661,34 C1.23642355,24.559559 4.40901863,17.0844051 7,13 Z" id="Fill-34" fill-opacity="0.4" fill="#FFFFFF"></path>
            <path d="M5.81328,4.30959203 L5.79517034,1.16955602 C5.79129761,0.549452315 6.29614666,0.0385937779 6.91667116,0.0355490539 L13.0421925,1.37072174e-05 C13.6627171,-0.0030310168 14.1721861,0.501549994 14.1760588,1.1216537 L14.1947575,4.36381463 L14.2732654,4.36432253 C15.1545897,4.37082279 15.8870732,5.10585985 15.9034456,5.99827026 L15.9997593,11.3865769 C16.0149637,12.2796891 15.3080128,13.0052705 14.42741,12.9999712 L5.72677215,12.9424875 C4.84616935,12.9371882 4.11179646,12.201652 4.09659201,11.3085398 L4.00027829,5.92023318 C3.98390596,5.02782277 4.69202474,4.30153957 5.57334905,4.30803984 L5.81328,4.30959203 Z" id="Path" fill="#000000"></path>
        </g>
    </g>
</svg>