<svg width="96" height="96" xmlns="http://www.w3.org/2000/svg"><defs><radialGradient cx="67.979%" cy="71.869%" fx="67.979%" fy="71.869%" r="82.597%" id="a"><stop stop-color="#A0D039" offset="0%"/><stop stop-color="#0DB091" offset="100%"/></radialGradient></defs><path d="M38.634 0C27.633 10.806 15.84 28.455 15.84 50.97c0 10.542 2.649 19.308 7.371 27.387h6.024c-4.719-9.657-6.33-18.225-6.33-27.192 0-21.843 11.142-39.42 22.731-51.165H63.36c10.641 0 14.031 0 18.831 1.599A20.46 20.46 0 0 1 94.401 13.8C96 18.6 96 21.999 96 32.64v30.72c0 10.641 0 14.04-1.599 18.84A20.16 20.16 0 0 1 82.2 94.401C77.4 96 74.001 96 63.36 96H32.64c-10.641 0-14.04 0-18.84-1.599A20.169 20.169 0 0 1 1.599 82.2C0 77.4 0 74.001 0 63.36V32.64C0 21.999 0 18.6 1.599 13.8A20.16 20.16 0 0 1 13.8 1.599C18.6 0 21.999 0 32.64 0h5.994zm23.871 45.12H34.98L33.6 50.4h27.525l1.38-5.28zm10.89-1.92c0 22.752-12.09 40.98-24.186 52.8h6.945c11.403-10.74 24.3-29.061 24.3-52.605 0-10.44-2.532-19.209-7.254-27.189h-6.141c4.722 9.456 6.336 18.126 6.336 26.991v.003z" fill="url(#a)"/></svg>